<svg viewBox="0 0 32 40" xmlns="http://www.w3.org/2000/svg"><path d="m13.49 10.05a.5.5 0 0 0 0 1 .5.5 0 0 0 0-1z"/><path d="m19.86 10.3a.5.5 0 0 0 0 1 .5.5 0 0 0 0-1z"/><path d="m26.73 30.46c-1.4-3.43-4.56-7.41-2.67-11.33a.5.5 0 0 0 0-.39c1.07-.93 2.06-1.94 2-3.44-.05-1.08-.35-2.13-.41-3.21a12.6 12.6 0 0 0 -.3-2.59c-.91-3.53-2.84-7-6.46-8.12-3.09-1-7.48-.39-9.83 2-2.89 2.94-2.77 7.86-2.56 11.77a.51.51 0 0 0 -.11.19 5.85 5.85 0 0 0 0 4.18.51.51 0 0 0 .73.3 4.81 4.81 0 0 0 1-1 8.81 8.81 0 0 0 .42 4.26c.42 1.42 1 2.8 0 4.12a8.66 8.66 0 0 1 -3.1 2.13.51.51 0 0 0 .12.91c2.44.61 5.13.13 6.62-2.06a4.26 4.26 0 0 0 .73-1.82.49.49 0 0 0 .22 0q3.1-.06 6.2.09c.64 0 .64-1 0-1s-1.33 0-2-.06a.49.49 0 0 0 .18-.36 10.36 10.36 0 0 0 -.19-2.69c-.13-.63-1.09-.36-1 .27a9.32 9.32 0 0 1 .15 2.43.43.43 0 0 0 .12.34h-1.78a.49.49 0 0 0 .09-.19 11.21 11.21 0 0 0 .26-2.62.5.5 0 0 0 -1 0 10 10 0 0 1 -.23 2.43.47.47 0 0 0 .14.46h-.92a.5.5 0 0 0 -.18 0c-.11-1.79-1.15-3.52-.95-5.55 1.92.34 3.12-1.75 4-3.25a34.81 34.81 0 0 0 2.22 4.71.5.5 0 0 0 .79.1 12.12 12.12 0 0 0 2.44-5.28 15.67 15.67 0 0 0 1.74 2.35c-1.88 3.91.59 7.69 2.19 11.21a7.29 7.29 0 0 1 -4.08-3.56 5.86 5.86 0 0 1 -.32-5.25c.21-.61-.76-.87-1-.27-.38 1.12-.91 1.54-.8 2.74a9.37 9.37 0 0 0 1.19 3.36 8.19 8.19 0 0 0 5.68 4.3c.38.07.82-.22.66-.61zm-14.73-5.91c.54 3.14-2 4.94-4.65 4.94a6.26 6.26 0 0 0 2.85-2.79 4.45 4.45 0 0 0 -.2-2.64c-.51-1.88-1.22-3.53-.67-5.5a.48.48 0 0 0 -.48-.61 12.68 12.68 0 0 0 .79-1.95 7.46 7.46 0 0 0 1.57 3.56.51.51 0 0 0 -.19.35c-.17 1.73.71 3 .98 4.64zm6.76-4.32a33.47 33.47 0 0 1 -2.13-4.79.51.51 0 0 0 -.91-.12c-.74 1-2.15 4.38-4 3.31-.81-.48-1.31-3.67-1.53-4.56a.5.5 0 0 0 -1 0c-.53 1.43-1 3.3-2.07 4.44a5.6 5.6 0 0 1 0-2.11.43.43 0 0 0 .38-.47c-.15-3.46-.5-7.59 1.41-10.68s6.75-4 10.06-2.81 5.4 5.38 5.69 8.8a30.19 30.19 0 0 1 .17 4.31c-.06.88-.28 2.1-1.33 1.83-.63-.16-1.51-2.28-1.77-2.81a.5.5 0 0 0 -.91.12 14.17 14.17 0 0 1 -2.05 5.54z"/><path d="m11.77 5.13a.5.5 0 0 0 -.5.86 7 7 0 0 1 2.73 2.77c.31.56 1.17.06.86-.5a8 8 0 0 0 -3.09-3.13z"/><path d="m20.4 4.8c-1.72.63-2.37 2.29-2.87 3.92-.19.62.78.88 1 .27.38-1.24.83-2.72 2.17-3.22.56-.23.3-1.2-.3-.97z"/><g font-family="'Helvetica Neue', Helvetica, Arial-Unicode, Arial, Sans-serif" font-size="5" font-weight="bold"><text y="47">Created by iconix user</text><text y="52">from the Noun Project</text></g></svg>