<svg viewBox="0 0 32 40" xmlns="http://www.w3.org/2000/svg"><path d="m29.84 18.08c-.34-2.64-2.23-5.17-3.5-7.45s-2.64-5.12-4.91-6.78c-3.96-2.92-9.64-1.54-13.33 1.15-4.49 3.29-6 8.4-6.76 13.68-.45 2.93-.93 6.41-.24 9.32.4 1.68 2 1.64 3.49 1.57h10.51c1.4 0 4.76.74 5.73-.45.62-.75.19-3.06.18-3.93q0-2.6-.15-5.2c-.08-1.54-.63-3.65-.35-5.14.8-4.37 3.91.17 4.41 1.6a3.48 3.48 0 0 1 .26 2.13c-.22.89-.48.61-.76 1.3a2.33 2.33 0 0 0 -.17 2.12c.68 1.68 2.76 1.92 4.33 1.81 2.84-.23 3.96-4.39 1.26-5.73zm-1.26 4.72c-1 .41-2.84-2.1-2.85-2.74 0-.28.76-1 .77-1.49a10 10 0 0 0 -1.13-4c-.9-1.64-4.14-4.19-5.55-1.71-.87 1.53-.14 4.05 0 5.71.16 2.56.61 5.5.23 8-.28 1.92-1.22 2-3 2h-3.88-8.08-.13a8.86 8.86 0 0 1 -2.39-.1 4.24 4.24 0 0 1 -.65-2.47 21.82 21.82 0 0 1 0-2.88 40.79 40.79 0 0 1 1-7.49c.92-4.13 2.64-7.76 6.28-10.17 3.79-2.51 9.23-3.37 12.69.14a24.88 24.88 0 0 1 3.58 5.54c1.17 2.1 3.13 4.67 3.39 7.08a.51.51 0 0 0 .19.35.4.4 0 0 0 .25.36l1 1.82z"/><path d="m11.39 19.09a.49.49 0 0 0 -.5 0 .44.44 0 0 0 -.24 0 3 3 0 0 0 -2.17 2.2 2.13 2.13 0 0 0 1.82 2.41 2.31 2.31 0 0 0 2.52-1.76 2.54 2.54 0 0 0 -1.43-2.85zm-.95 3.62a1.12 1.12 0 0 1 -.92-1.47 2.26 2.26 0 0 1 1.39-1.12.5.5 0 0 0 .09-.12 1.54 1.54 0 0 1 .87 1.46 1.31 1.31 0 0 1 -1.43 1.25z"/><path d="m6.42 12.72a.5.5 0 0 0 0 1 .5.5 0 0 0 0-1z"/><path d="m15.77 13.62a.5.5 0 0 0 0 1 .5.5 0 0 0 0-1z"/><g font-family="'Helvetica Neue', Helvetica, Arial-Unicode, Arial, Sans-serif" font-size="5" font-weight="bold"><text y="47">Created by iconix user</text><text y="52">from the Noun Project</text></g></svg>