<svg viewBox="0 0 32 40" xmlns="http://www.w3.org/2000/svg"><path d="m16.34 12.6c1.48-.29 4-1.27 4.89-2.49a.48.48 0 0 0 0-.5 7.31 7.31 0 0 0 -5-2.54 5.36 5.36 0 0 0 -4.59 2.51.42.42 0 0 0 .1.6.46.46 0 0 0 -.13.77 5.53 5.53 0 0 0 4.73 1.65zm.28-1.14c-.12-1.07-.22-2.15-.29-3.22a.51.51 0 0 0 0-.16 6.79 6.79 0 0 1 1.16.22.46.46 0 0 0 0 .07 25.56 25.56 0 0 0 .19 2.63l-.23.11a6.26 6.26 0 0 1 -.84.35zm3.17-1.81c.21.43 0 .35-.58.66l-.58.31c-.09-.65-.14-1.31-.18-2a2.63 2.63 0 0 1 1.33 1.03zm-6.45-.53a7.54 7.54 0 0 1 .12 1.94 7 7 0 0 1 -1.15-.82.5.5 0 0 0 .18-.16 4.84 4.84 0 0 1 .84-.96zm1.06 2.33a.51.51 0 0 0 0-.15 8.34 8.34 0 0 0 -.21-2.78 4.1 4.1 0 0 1 1.12-.39.46.46 0 0 0 0 .1c.07 1.13.17 2.25.3 3.37a3.86 3.86 0 0 1 -1.22-.15z"/><path d="m29.18 1.37c-.23-.36-.57-.34-1-.37a13.2 13.2 0 0 0 -2.55 0c-1.45.19-2.31 1.39-3.24 2.4a8.16 8.16 0 0 0 -1.34-.38c-3.33-.63-7-1.71-10.38-1.31a.55.55 0 0 0 -.36.88l-.31.2a8.2 8.2 0 0 0 -3.6-1 6.63 6.63 0 0 0 -3.4.5.5.5 0 0 0 -.25.43c.14 1.77 1.91 3.64 3.22 4.69a.52.52 0 0 0 .22.1 10.36 10.36 0 0 0 .76 5.7 20.11 20.11 0 0 0 1.42 2.79.46.46 0 0 0 -.12.05c-4.25 2.95 3.75 12.11-2.92 13.18-.54.09-.4.81 0 1 2.11.83 5.28 1.63 6.51-1a9.85 9.85 0 0 0 .46-3.92c0-2 0-4 0-6a15.39 15.39 0 0 0 7.26-.54c.3-.09.59-.19.87-.3a.49.49 0 0 0 .06.23c2 3.49-1.2 7.09.38 10.44 1.1 2.34 3.8 2.11 5.94 1.72.5-.09.45-.85 0-1-2.58-.67-2.4-4.71-2-6.63.31-1.39 1-2.71 1.12-4.15a3.45 3.45 0 0 0 -1.73-3.39 8.76 8.76 0 0 0 1.46-8.59 5.13 5.13 0 0 0 1.92-2c.48-.76.92-1.56 1.34-2.35.22-.4.56-.9.26-1.38zm-22.38 4.1a6.7 6.7 0 0 0 -.4 1 9.15 9.15 0 0 1 -1.64-1.73 9.05 9.05 0 0 1 -.53-.87c-.23-.4-.47-.65-.23-.87.48-.4 2-.26 2.58-.21a6.84 6.84 0 0 1 2.27.58 5.28 5.28 0 0 0 -2.05 2.1zm3.34 24.2a3.62 3.62 0 0 1 -3.21.07 4.47 4.47 0 0 0 2.07-3.53 10.55 10.55 0 0 0 -.2-3.44c-.38-1.79-2-4.44 0-5.87a.53.53 0 0 0 .14-.15 7 7 0 0 0 2.45 2.16v6.36c-.12 1.34.05 3.54-1.25 4.4zm13.7-6.27a10.2 10.2 0 0 0 -.11 3.35 5.48 5.48 0 0 0 1.53 3.35 3.15 3.15 0 0 1 -1.71-.1 4.8 4.8 0 0 1 -2-3.17 21.06 21.06 0 0 1 .61-3.77 7.53 7.53 0 0 0 -.8-4.92.48.48 0 0 0 -.1-.11 9.27 9.27 0 0 0 2.28-1.66.48.48 0 0 0 .17.17c2.57 1.46.47 4.98.12 6.86zm-3.76-5.88a15.89 15.89 0 0 1 -5.28.86 8.43 8.43 0 0 1 -2.71-.2c-1.43-.5-2.3-2-3.07-3.19a10.41 10.41 0 0 1 -2-6.25c.21-3.7 2.76-5.09 6-5.83a.45.45 0 0 0 .23-.13c1.34.12 2.67.4 4 .65 2 .36 4.2.4 5.75 1.7a6.28 6.28 0 0 1 1.23 1.39c-.4.24-.13 1 .43.9h.05c1.67 3.71-.71 8.58-4.63 10.1zm6.73-13.06a4.34 4.34 0 0 1 -1.54 1.7 5 5 0 0 0 -1.94-2.26 5.33 5.33 0 0 1 2.12-1.8 7.25 7.25 0 0 1 2.78-.1 12 12 0 0 1 -1.42 2.46z"/><path d="m22 12.53a4.72 4.72 0 0 1 -.49 1.85c-.54.78-.43.29-1-.28-.26-.27-.54-.7-1-.73-1.21-.09-1.15 1.5-1.64 2.1-.84 1-1.69-1.82-2.81-1.75a1.17 1.17 0 0 0 -.7.4c-.25.24-.3.64-.51.91q-.13 1-.64.4a1 1 0 0 1 -.6-1c-.23-.6-1.19-.34-1 .27.44 1.16.9 3.15 2.41 1.92.31-.25.45-.83.66-1.11.73-1 .22-.53.92-.11s1.18 1.34 2.18 1.56a.51.51 0 0 0 .49-.13c.46-.51.53-2.1 1.46-2 .48 0 .77 1.21 1.43 1.22 1.31 0 1.6-2.36 1.73-3.23.2-.66-.76-.93-.89-.29z"/><g font-family="'Helvetica Neue', Helvetica, Arial-Unicode, Arial, Sans-serif" font-size="5" font-weight="bold"><text y="47">Created by iconix user</text><text y="52">from the Noun Project</text></g></svg>