<svg viewBox="0 0 32 40" xmlns="http://www.w3.org/2000/svg"><path d="m11.86 9.9a.5.5 0 0 0 0 1 .5.5 0 0 0 0-1z"/><path d="m16.91 11.09a.5.5 0 0 0 0-1 .5.5 0 0 0 0 1z"/><path d="m26 5.5a2.84 2.84 0 0 0 -1.72-1.5.45.45 0 0 0 -.28 0 .47.47 0 0 0 -.33-.27.5.5 0 0 0 -.18-.24c-1.42-1-2-2.67-4-2.85-1.73-.16-3.68 1-5.1 1.83a.47.47 0 0 0 -.19.22 7.8 7.8 0 0 0 -6.14 2.17c-2.06 2.37-2.01 6.14-1.85 9.14a.5.5 0 0 0 -.08.16 5.1 5.1 0 0 0 0 3.37.5.5 0 0 0 .73.3 5.69 5.69 0 0 0 1.89-2.78c.33 1.28.85 2.68 1.89 2.82 1.62.22 2.46-1.18 3.18-2.39a28.43 28.43 0 0 0 1.73 3.52.5.5 0 0 0 .79.1 9.9 9.9 0 0 0 1.9-4 13.63 13.63 0 0 0 1.38 1.9.51.51 0 0 0 .71 0 3.89 3.89 0 0 0 1.67-2.66 14.81 14.81 0 0 0 -.34-2.73 11.52 11.52 0 0 0 -.34-2.4c-.87-2.76-2.32-5.35-5.24-6.21l-.4-.09c1.38-.8 3.07-1.62 4.53-1 1.23.42 1.79 1.66 2.79 2.41a2.77 2.77 0 0 0 .2 2.34 1.79 1.79 0 0 0 2.08.74 1.28 1.28 0 0 0 .72-1.9zm-9.55-1.28c2.8 1.24 3.95 4.54 4.16 7.39a20.77 20.77 0 0 1 .26 2.19c-.26 4-1.77 1-2.4-.26a.51.51 0 0 0 -.91.12 11.77 11.77 0 0 1 -1.5 4.19 27 27 0 0 1 -1.61-3.61.51.51 0 0 0 -.91-.12c-.88 1.24-.33 1.61-2.17 1.42q-1.5.46-1.58-.88-.24-.75-.41-1.51a.5.5 0 0 0 -1 0 10.09 10.09 0 0 1 -1.53 3.36 3.32 3.32 0 0 1 0-1.39.43.43 0 0 0 .37-.46c-.12-2.66-.36-5.71.94-8.14 1.5-2.79 5.55-3.52 8.29-2.3zm8.21 2.28c-.84 0-.89-.9-.77-1.61a.5.5 0 0 0 .11.11 1.82 1.82 0 0 1 .88.65c.26.35.43.87-.22.85z"/><path d="m20.88 21.37-.36 1.05-.66-1.13a.51.51 0 0 0 -.91.12c-.26.91-1 4-1.72 3.83-1.06-.32-2-2.23-2.49-3.13a.51.51 0 0 0 -.86 0 4.41 4.41 0 0 0 -.76 1.26q-1.84 1.87-2.54 0a16 16 0 0 1 -2.15-3.16.51.51 0 0 0 -.91.12c-.59 1.54-.25 3-.55 4.65-.97 1.44-1.39 3.02-.17 4.47 1.73 2.1 5.3 2 7.71 1.91 1.91 0 5.51.17 6.82-1.65 1.5-2.08.89-6 .51-8.34-.09-.53-.84-.42-.96 0zm.12 5.81c-.64 3-3.12 3-5.59 3.15-3 .14-10.37-.16-7.67-4.71a.43.43 0 0 0 .15-.23l.11-.25a.41.41 0 0 0 0-.55c.09-.93 0-1.88.17-2.8.87 1.58 2 3.81 3.55 3.92 1.33.09 2-1.27 2.56-2.35.77 1.31 2.13 3.4 3.29 3.23s1.67-2.25 2-3.72l.58 1a.51.51 0 0 0 .91-.12v-.06a12 12 0 0 1 -.06 3.49z"/><g font-family="'Helvetica Neue', Helvetica, Arial-Unicode, Arial, Sans-serif" font-size="5" font-weight="bold"><text y="47">Created by iconix user</text><text y="52">from the Noun Project</text></g></svg>