<svg viewBox="0 0 32 40" xmlns="http://www.w3.org/2000/svg"><path d="m19.11 22.07c-.01-.07-.01-.07 0 0z"/><path d="m30.55 19.15c-.82 1.69-3.22 1-4.3 0 0-1 0-2 0-2.85 0-3.75-1.07-6.54-4.14-8.83a12.79 12.79 0 0 0 -5-2.49c-2.47-.45-5.26-.06-7.77 0a.46.46 0 0 0 -.46.34c-3 1.15-4 4.17-4.64 7.09-.37 1.61-.85 3.59-.41 5.23a5.12 5.12 0 0 0 .65 1.34c.12.23.24.43.35.61a.5.5 0 0 0 -.07.23c0 .43-.79.8-1.17.8a2.61 2.61 0 0 1 -1-.27 8.2 8.2 0 0 1 -1.31-.8c-.5-.35-.94.38-.61.79.85 1 1.13 2.3 2.24 3.17a5.85 5.85 0 0 0 2.69 1.12c.25 1.4 1.14 2.37 3.07 2.56a2.72 2.72 0 0 0 3.06-2 2.36 2.36 0 0 0 1.58.67c1.13.07 1.59-.39 1.79-1.1a1.66 1.66 0 0 0 1.88.49 2.15 2.15 0 0 0 1.45-1.62 3.09 3.09 0 0 0 1.24 2.52 3.69 3.69 0 0 0 3.65-.14 4.17 4.17 0 0 0 1.28-1c1.47.34 3 .47 4.23-.56 1.41-1.15 2.15-3.17 2.7-4.84.11-.61-.73-.98-.98-.46zm-27.66 3a4.92 4.92 0 0 1 -.54-.82 3.16 3.16 0 0 0 1.65.21 2.07 2.07 0 0 0 1.46-.83 3.47 3.47 0 0 1 .11 1.79 8.24 8.24 0 0 0 -.08 1 4.56 4.56 0 0 1 -2.6-1.38zm16.47 1.15c0 .07-.22-1-.25-1.19a.48.48 0 0 0 -.71-.25s0-.08 0-.12c-.15-.63-1.11-.36-1 .27s.23 1.79-.58 2.16c-1.23.57-1.44-.7-1.59-1.39s-1-.41-1 .13.06 2-.93 1.89-.92-1.25-.84-2a.39.39 0 0 0 -.25-.44c0-.57-.92-.55-1 .06-.17 1.34-.33 3.53-2 3.81a2.5 2.5 0 0 1 -2.69-1.85.56.56 0 0 0 -.17-.52q.17-1 .34-2a4.23 4.23 0 0 0 -.55-2.7c-.57-1.06-1.32-1.8-1.44-3.13a11.16 11.16 0 0 1 .49-3.32c.62-2.71 1.43-5.71 4.28-6.63a.48.48 0 0 0 .24-.18 37.33 37.33 0 0 1 7.29.1c3 .54 6.56 3.12 7.7 6 1 2.39.7 5.39.41 7.9a11.14 11.14 0 0 1 -.88 4 .5.5 0 0 0 -.53.64 1.84 1.84 0 0 1 -.17.15c-1.12.65-3.67-.46-4.17-1.43zm9.31-.3a3.3 3.3 0 0 1 -3.49 1 9.6 9.6 0 0 0 1-3.73 4.67 4.67 0 0 0 3.67.69 8.66 8.66 0 0 1 -1.18 2.04z"/><path d="m12 15.86a.5.5 0 0 0 0 1 .5.5 0 0 0 0-1z"/><path d="m16.79 15.54a.5.5 0 0 0 0 1 .5.5 0 0 0 0-1z"/><g font-family="'Helvetica Neue', Helvetica, Arial-Unicode, Arial, Sans-serif" font-size="5" font-weight="bold"><text y="47">Created by iconix user</text><text y="52">from the Noun Project</text></g></svg>