<svg viewBox="0 0 32 40" xmlns="http://www.w3.org/2000/svg"><path d="m11.2 5.37a.5.5 0 0 0 0 1 .5.5 0 0 0 0-1z"/><path d="m30.57 6.43a3.52 3.52 0 0 0 -1.93-1.43 3.25 3.25 0 0 0 -2.64.58.48.48 0 0 0 -.1.09c-.19-.18-.38-.35-.58-.51-4.06-3.22-10-4.51-15-4.35-4.32.12-8.76 1.31-8.96 6.27a.5.5 0 0 0 -.36.43c-.31 3.31.8 7.68 4.81 7.68a5.18 5.18 0 0 0 3.22-1 2 2 0 0 0 1.77.84 2.88 2.88 0 0 0 2.2-1.03 2.09 2.09 0 0 0 1.57 1.59 2.06 2.06 0 0 0 1.6-.33 2.48 2.48 0 0 0 1 .72 2.57 2.57 0 0 0 2.09.49 1.15 1.15 0 0 0 .51-.41 6.17 6.17 0 0 1 1 4.48 3.16 3.16 0 0 1 -.77 1.68c-1.16-1.34-3-3.06-4.9-2a1.65 1.65 0 0 0 -.92 1.32 1.49 1.49 0 0 0 -1.57-.54 2 2 0 0 0 -1.49 1.82 3.27 3.27 0 0 0 -2.5-1.38c-1.41.12-2.13 1.63-2.36 2.93-1.91.19-3.49.84-3.08 2.77.82 4.1 6.66 4.48 9.82 4.21 4.59-.39 9.74-.93 14-2.87 3.79-1.78 3.39-7.94 3-11.48a29 29 0 0 0 -1.23-6.48h.12c.77-.44 1.57-.76 1.9-1.65a2.68 2.68 0 0 0 -.22-2.44zm-18.92 7.43q-1.37.78-1.77-.61a.4.4 0 0 0 -.06-.25 1.27 1.27 0 0 1 .23-.48c.49-.5 1.67-.45 2.83-.26a.51.51 0 0 0 -.15.23 2.06 2.06 0 0 1 -1.08 1.37zm2.3-.07a2.77 2.77 0 0 1 -.24-1.19.54.54 0 0 0 -.08-.22c.69.14 1.32.3 1.69.37a5.37 5.37 0 0 1 1.31.45 4.34 4.34 0 0 0 -.31.56c-.23.23-.52.29-1.2.33q-1.05.54-1.12-.3zm5.05 1.43c.17.79-1.59-.12-1.84-.32s-.14 0-.16-.2a.85.85 0 0 1 .11-.38c.14-.19.27-.39.39-.59a8 8 0 0 1 1.5 1.35.5.5 0 0 0 0 .14zm-.38 7c.18.18.33.37.49.56-.31.14-.67.27-1.11.43a17.49 17.49 0 0 1 -1.68.5l-.63.14a.55.55 0 0 0 0-.22q1.75-2.98 2.96-1.41zm-5.62 1.09q1-1.07 1.2 0a4.47 4.47 0 0 1 .58.73c-.9.15-1.8.25-2.71.32-.2-.65.1-1 .93-1.05zm-2 1.12c-.84 0-2.26-.11-3.68-.08.56-1.69 2.74-1.97 3.68.08zm18.14-3.31c-.2 2.83-.42 5.61-3.34 6.77a29.72 29.72 0 0 1 -6.16 1.55c-4 .67-9.8 2.24-13.48-.21-1-.64-3-2.44-.21-3.67a1.17 1.17 0 0 1 .42-.06.54.54 0 0 0 .59 0h.32c1 0 2.08 0 3.11-.08a33.56 33.56 0 0 0 5.4-.59c2.34-.49 6.06-1.39 6.42-4.26.3-2.34-1.61-5.43-3.13-7a6.71 6.71 0 0 0 -4.27-1.94c-1.2-.2-3.54-1.08-4.71-.66a2.3 2.3 0 0 0 -.72.56c-.84.79-1 2.1-2.34 2.53-4 1.28-5.21-3.5-5-6.44a.47.47 0 0 0 .32-.45c.16-6.17 8.19-5.77 12.56-5.08 3.94.62 8.87 2.13 11.34 5.46 2.61 3.51 3.15 9.36 2.86 13.57zm.76-12.66c-.24.6-.89.81-1.41 1.1a11.6 11.6 0 0 0 -1.89-3.16 2.22 2.22 0 0 1 1.77-.4 2.5 2.5 0 0 1 1.34 1 1.65 1.65 0 0 1 .17 1.46z"/><g font-family="'Helvetica Neue', Helvetica, Arial-Unicode, Arial, Sans-serif" font-size="5" font-weight="bold"><text y="47">Created by iconix user</text><text y="52">from the Noun Project</text></g></svg>