<svg viewBox="0 0 32 40" xmlns="http://www.w3.org/2000/svg"><path d="m26.61 22.51a22.16 22.16 0 0 0 -4.72-14 .42.42 0 0 0 -.23-.15q-5.6-4-11.5-7.47c-.52-.31-.94.36-.61.79 1.45 1.81 3.26 3.32 4.69 5.22-2.67-1-4.76-3.09-7.17-4.66-.41-.27-1 .27-.68.68 1.34 2 3.14 3.56 4.49 5.49-1.6-.53-3.19-1.1-4.75-1.77a.5.5 0 0 0 -.68.68 18.56 18.56 0 0 0 2.19 3.68 28.68 28.68 0 0 1 3 5.28 7.7 7.7 0 0 0 -1.69 3.29c-.31 1.77.59 3.72 1.33 5.28 2.11 4.46 5.72 6.69 10.72 6.31 1.7-.13 3.56-.29 4.54-1.87 1.16-1.83 1.08-4.74 1.07-6.78zm-1.09 2.37c-.23 3-.94 5-4.49 5.28-4.11.33-7.37-1.2-9.41-4.84a11.62 11.62 0 0 1 -1.77-4.92c0-2.27 2.46-4.52 3.79-6.19.4-.5-.31-1.21-.71-.71s-1.06 1.24-1.64 1.91a28.38 28.38 0 0 0 -2.25-4.25c-.74-1.09-1.47-2.03-2.11-3.16 1.64.66 3.29 1.27 5 1.79a.51.51 0 0 0 .56-.73 21.27 21.27 0 0 0 -2.92-3.78 15.49 15.49 0 0 0 5.78 3 .51.51 0 0 0 .56-.73 25.53 25.53 0 0 0 -3.38-4.09q4.47 2.76 8.69 5.77a20 20 0 0 1 4.05 9.15 26.41 26.41 0 0 1 .26 6.5z"/><path d="m19.08 24.4a10 10 0 0 0 -2.94-1.35.5.5 0 0 0 -.27 1 9.09 9.09 0 0 1 2.7 1.25c.54.33 1.04-.54.51-.9z"/><path d="m22.1 24.77a14.35 14.35 0 0 0 1-2.34c.2-.61-.77-.88-1-.27a12.85 12.85 0 0 1 -.89 2.1c-.28.58.59 1.08.89.51z"/><path d="m22.94 27a9.63 9.63 0 0 0 -3.62 1c-.57.29-.07 1.15.5.86a8.32 8.32 0 0 1 3.12-.86c.64 0 .64-1 0-1z"/><g font-family="'Helvetica Neue', Helvetica, Arial-Unicode, Arial, Sans-serif" font-size="5" font-weight="bold"><text y="47">Created by iconix user</text><text y="52">from the Noun Project</text></g></svg>