<svg viewBox="0 0 32 40" xmlns="http://www.w3.org/2000/svg"><path d="m16.8 10.05a.5.5 0 0 0 0 1 .5.5 0 0 0 0-1z"/><path d="m30 17.72a5.12 5.12 0 0 0 -1.81-1.41c1.57-.72 3.24-1.29 2.87-3.49-.19-1.13-1.21-1.37-2.15-1.78a5.87 5.87 0 0 0 -1.53-.58 1.89 1.89 0 0 0 -.66.06c1.79-1.92 2.78-4.67-.23-6.27a4.88 4.88 0 0 0 -4-.12 5.55 5.55 0 0 0 -2.09 1.22 1.58 1.58 0 0 0 -.16.24c-.24-1.93-1.1-3.34-3.64-2.91a4.8 4.8 0 0 0 -3.91 4.86.49.49 0 0 0 0 .17 27.42 27.42 0 0 0 -7.52.78c-1.44.4-4.29 1.24-4.55 3s2.55 2.89 4 3.2a11.41 11.41 0 0 0 1.8.23 2.29 2.29 0 0 0 .3 3.61c1.21.82 3.16.57 4.53.56a46.61 46.61 0 0 0 5.75-.39c.08 2.59 0 5.15-.19 7.73-.07 1-.19 2.23.91 2.71s3.05-.08 4-.57a6.62 6.62 0 0 0 3-3.49 11 11 0 0 0 .69-3 7.34 7.34 0 0 0 3.56-.53c.69-.21 2.15-.42 2.25-1.35s-.7-1.88-1.22-2.48zm-16.29-10.18c0-1.7.9-3.4 2.74-3.7 2.54-.42 2.94 1.67 2.88 3.68a.45.45 0 0 0 .19.36 17.38 17.38 0 0 0 -3-.27.5.5 0 0 0 .48-.48 4.46 4.46 0 0 0 -.24-1.76c-.21-.6-1.18-.34-1 .27a3.71 3.71 0 0 1 .24 1.49.42.42 0 0 0 .4.47h-1.44a.45.45 0 0 0 -.36.15h-.89a.5.5 0 0 0 0-.21zm10.67 15a6.82 6.82 0 0 1 -2 4.39c-1.06.92-4.1 2.21-4.55.19-.26-1.14.22-2.83.26-4 .05-1.56 0-3.12 0-4.68a.47.47 0 0 0 -.1-.28.55.55 0 0 0 -.62-.54 46.2 46.2 0 0 1 -5.17.45q-.89 0-1.78 0l-1.42.02q-1.83.12-1.5-2.77a.47.47 0 0 0 .27-.32h.94c0 .3.06.59.11.88.1.63 1.07.36 1-.27 0-.22-.05-.45-.08-.67l.84-.05v.4a.5.5 0 0 0 1 0c0-.15 0-.3 0-.44h.82c0 .19.05.39.07.57.06.63 1.06.64 1 0l-.05-.54c.3 0 .6 0 .9.08.64.08.63-.92 0-1-.34 0-.67-.06-1-.08a3.29 3.29 0 0 1 0-.91c.1-.63-.87-.9-1-.27a4.94 4.94 0 0 0 0 1.13h-.79c0-.33-.1-.66-.17-1-.15-.63-1.11-.36-1 .27.06.25.09.51.13.76h-.84c0-.36 0-.71 0-1.07a.5.5 0 0 0 -1 0v1.12h-.44a12.9 12.9 0 0 1 -3.28-.18c-1.17-.25-4-1-2-3.25 1.07-1.22 4.28-1.48 5.83-1.61a50.76 50.76 0 0 1 6.1-.13.45.45 0 0 0 .36-.15 17.36 17.36 0 0 1 4.68.47c2 .62 2.87 2.7 3.47 4.5a21.35 21.35 0 0 1 1.01 9.03zm5.54-2.35-.37.13c-.37.13-.75.25-1.13.36a5.68 5.68 0 0 1 -2.74.4h-.13q0-.83 0-1.68l2.15.12c.64 0 .64-1 0-1l-2.23-.12a24 24 0 0 0 -.73-3.8 11.43 11.43 0 0 0 3.26-.49c.61-.19.35-1.16-.27-1a10.56 10.56 0 0 1 -3.3.49c-.13-.4-.26-.79-.4-1.15a14.09 14.09 0 0 0 -1-2.2.43.43 0 0 0 0-.5c.06.09.44-.48.51-.57s.38-.46.58-.69c.42-.48-.28-1.19-.71-.71s-.71.85-1 1.29l-.1.16a4 4 0 0 0 -1-.8 5.57 5.57 0 0 0 -1.31-.43.41.41 0 0 0 .2-.11c.8-.89.64-1.85 2-2.53a4.43 4.43 0 0 1 4.55.31c2.5 1.86-.61 4.2-1.78 5.11-.39.31 0 .8.36.82a.39.39 0 0 0 .39.17 3.83 3.83 0 0 1 2.3 0c.78.33 2 .61 2.06 1.63.19 1.6-2.08 1.84-3.08 2.4a.44.44 0 0 0 -.22.54.46.46 0 0 0 .32.63 3.93 3.93 0 0 1 1.9 1.03c.35.35 1.19 1.28 1.23 1.81q.27.39-.3.43z"/><g font-family="'Helvetica Neue', Helvetica, Arial-Unicode, Arial, Sans-serif" font-size="5" font-weight="bold"><text y="47">Created by iconix user</text><text y="52">from the Noun Project</text></g></svg>