<svg viewBox="0 0 32 40" xmlns="http://www.w3.org/2000/svg"><path d="m29.48 17c-.49-1.11-1.17-2.79-2.2-3.54s-1.52-.27-2.63 0c-2.58.5-3.07-.26-4.54-1.83a16.08 16.08 0 0 0 -2.36-2.27 6.27 6.27 0 0 0 -3.25-1.36 7.33 7.33 0 0 1 1.5-2.44c1.3-1.27 2.6-.76 3.88.08a2.18 2.18 0 0 0 1.33 2.36 2.16 2.16 0 0 0 2.56-1c.42-1.13-.51-2-1.32-2.65a.4.4 0 0 0 -.33-.09.49.49 0 0 0 -.26-.1 1.9 1.9 0 0 0 -1.53.61c-1.33-.9-2.78-1.46-4.33-.53a7.5 7.5 0 0 0 -2.65 3.85c-2.84.58-3.52 3.91-4.35 6.46-2.23-.83-5.79-.55-7.42 1.15-1.94 2 .39 4.44 1.87 6.16-1.49.79-.88 2.93.44 3.9a8.23 8.23 0 0 0 4.11 1.29 16.18 16.18 0 0 0 3.34-.1 11.85 11.85 0 0 1 2.66-.42c1.08.2 1.83 1.12 3 1.35a22 22 0 0 0 5.3.12 4.64 4.64 0 0 0 3.08-1.36 2.11 2.11 0 0 0 .35-.61 1.7 1.7 0 0 1 1.8-.76 10.75 10.75 0 0 0 2.47-.45c2.29-1.2.24-6.15-.52-7.82zm-7.62-11.87.05.06c.38.3.94.7.92 1.25s-1 .85-1.45.61c-.87-.51-.68-2.05.48-1.92zm7.14 18.94a8.77 8.77 0 0 1 -2.21.22c-.29.06-.59 0-.87.09a2.54 2.54 0 0 0 -.7.43 3.51 3.51 0 0 1 -1.29 1.8 5 5 0 0 1 -2.33.4c-2 0-5.19.47-6.5-1.38a.53.53 0 0 0 -.56-.23 27.85 27.85 0 0 1 -5.29.7 10.07 10.07 0 0 1 -2.72-.3l-.78-.24q-2.7-.5-1.28-3c.41-.08.43-.57.22-.84-1.16-1.48-4.17-4.32-1.4-5.87a7 7 0 0 1 6-.16.51.51 0 0 0 .62-.69c.85-2.55 1.7-6.77 5.35-5.89 2.34.56 3.54 2.7 5.17 4.22a4.53 4.53 0 0 0 2.63 1.45c1.88.13 2.7-1.58 4.54.73a12.93 12.93 0 0 1 2.12 5.62 2.3 2.3 0 0 1 -.72 2.94z"/><path d="m13.14 17.28a.5.5 0 0 0 0-1 .5.5 0 0 0 0 1z"/><path d="m17.35 16.7a.5.5 0 0 0 0-1 .5.5 0 0 0 0 1z"/><path d="m23.49 17.94-.49 1.87-1.08-1a.5.5 0 0 0 -.84.22 10.08 10.08 0 0 1 -1.08 3.2 16.77 16.77 0 0 0 -3.34-2.74c-.3-.15-.54-.4-.89-.34-1 .18-1.26 1.69-1.58 2.78l-1.38-2.3a.51.51 0 0 0 -.91.12 4.7 4.7 0 0 1 -1.9 2.43 6.69 6.69 0 0 0 -.73-2.79c-.28-.58-1.14-.07-.86.5a5.72 5.72 0 0 1 .59 3.17.51.51 0 0 0 .75.43 5.82 5.82 0 0 0 2.67-2.55l1.4 2.34a.51.51 0 0 0 .86 0c.36-.5.59-2.18.92-2.43 1.07-.81 3.44 1.92 4.17 2.52a.51.51 0 0 0 .79-.1 10.58 10.58 0 0 0 1.31-3.15l1.05 1a.51.51 0 0 0 .84-.22l.69-2.68a.5.5 0 0 0 -.96-.28z"/><g font-family="'Helvetica Neue', Helvetica, Arial-Unicode, Arial, Sans-serif" font-size="5" font-weight="bold"><text y="47">Created by iconix user</text><text y="52">from the Noun Project</text></g></svg>