<svg viewBox="0 0 32 40" xmlns="http://www.w3.org/2000/svg"><path d="m26.77 22.9c-4.49 2.8-7.55-2.82-6.52-6.65.7-2.62 2.47-4.63 4-6.8a.47.47 0 0 0 .15-.12 34.43 34.43 0 0 0 2.38-3.33c.57-.92 1.5-2.09 1.51-3.21a.51.51 0 0 0 -.63-.48c-2.07.38-4 1.95-5.78 3.08-1.48-4.97-11.27-6.21-12.01-.52q-2.79-.9-5.52-2a.5.5 0 0 0 -.56.73c1.21 1.67 2.44 3.25 3.73 4.8a.46.46 0 0 0 .11.74 12 12 0 0 1 5.52 6.69c.59 1.82.67 4.73-.78 6.26a4.86 4.86 0 0 1 -5.8.63c-.45-.32-.88.28-.68.68a6.58 6.58 0 0 0 5 3.64l1.33 3.28a.51.51 0 0 0 .73.3 4.86 4.86 0 0 0 1.59-1.94c.46 1.13 1.14 2.53 2.24 2.15.83-.29.67-1.88 1.23-2.31q.1-.8.55.15l.65.74a5.27 5.27 0 0 0 1 1 .5.5 0 0 0 .5 0c.92-.53 1-2.35 1.2-3.47a14 14 0 0 0 5.49-3.24.5.5 0 0 0 -.63-.8zm-12.43-3c.86-4.32-1.86-8.9-5.52-11.21a.49.49 0 0 0 -.12-.4c-1.06-1.29-2.07-2.54-3.05-3.84 1.42.53 2.85 1 4.29 1.49a.42.42 0 0 0 .44-.09.48.48 0 0 0 .45-.47c.17-5.17 9.28-3.56 10.17.56a.43.43 0 0 0 .49.35.44.44 0 0 0 .61.11c1.53-.94 3.26-2.35 5-3a14.76 14.76 0 0 1 -1.46 2.39c-.49.76-1 1.48-1.56 2.19a.48.48 0 0 0 -.27.2c-2.43 3.75-6.18 7.63-4.43 12.48a5.56 5.56 0 0 0 5.22 3.84 12.6 12.6 0 0 1 -3 1.41.46.46 0 0 0 -.54.16 13.08 13.08 0 0 1 -3.12.44.44.44 0 0 0 -.42-.25c-3.2.05-7.41.51-9.77-2a5.64 5.64 0 0 0 6.59-4.38zm-1.48 9.47-.86-2.15c.65.08 1.32.12 2 .13a5.36 5.36 0 0 1 -1.14 2zm3.47.47c-.34 0-1-1.77-1.29-2.46h1.25a.49.49 0 0 0 .37.19h.82c-.39.69-1.1 2.25-1.15 2.25zm4.12-1.16c-.35 1.08-.15.61-.78-.21a6.84 6.84 0 0 0 -.81-.94 13.85 13.85 0 0 0 1.93-.28 12.62 12.62 0 0 1 -.34 1.4z"/><path d="m13.24 8.21a.5.5 0 0 0 0 1 .5.5 0 0 0 0-1z"/><path d="m18.71 9.76a.5.5 0 0 0 0-1 .5.5 0 0 0 0 1z"/><g font-family="'Helvetica Neue', Helvetica, Arial-Unicode, Arial, Sans-serif" font-size="5" font-weight="bold"><text y="47">Created by iconix user</text><text y="52">from the Noun Project</text></g></svg>