<svg viewBox="0 0 32 40" xmlns="http://www.w3.org/2000/svg"><path d="m8.76 12.53a.5.5 0 0 0 0 1 .5.5 0 0 0 0-1z"/><path d="m30.76 19.41c.15-1.16-1.08-2.36-1.76-3.16a4.23 4.23 0 0 0 -1.22-1.12 3.41 3.41 0 0 0 -1.1-.29 3.78 3.78 0 0 0 1.77-1.24 3.75 3.75 0 0 0 .23-3.41 2.54 2.54 0 0 0 -1.76-2.07 5.29 5.29 0 0 0 -2.43.19 3.63 3.63 0 0 0 .51-2.2 3 3 0 0 0 -1.8-2.71 3.77 3.77 0 0 0 -3.2.74 3.68 3.68 0 0 0 -.23-1.46 3.73 3.73 0 0 0 -2.63-1.87 3.21 3.21 0 0 0 -3.14.49 4.48 4.48 0 0 0 -1.08 2.28 4.87 4.87 0 0 0 -4.46-2.52c-.77.1-1.3.94-1.46 1.62a5.19 5.19 0 0 0 .23 3c-1.63-.89-4.63-2.87-5.73-.48-1 2.1.72 4.66 2.52 5.68a.49.49 0 0 0 .14 0 32 32 0 0 0 -.84 5.31.53.53 0 0 0 .14.91l.57.17a8.76 8.76 0 0 1 -.17 1.2c-.13.63.83.9 1 .27a10.59 10.59 0 0 0 .14-1.14l.85.23-.1.61c-.1.63.86.9 1 .27l.08-.71c.25.05.5.12.75.16.52.09 1.11.09 1.62.22a.36.36 0 0 0 .29 0 .47.47 0 0 0 -.08.11c-.19.32-.79.59-1.09.77-.63.38-1.28.73-1.92 1.09l-.54-.59c-.44-.48-1.14.23-.71.71l.36.39-.58.33-.18.11v-.11a6.62 6.62 0 0 1 -.08-.66c-.05-.64-1.05-.64-1 0a6.43 6.43 0 0 0 .21 1.39 2.47 2.47 0 0 0 -.78 1.08.42.42 0 0 0 .23.55c.25 2.64 0 5.15 2.7 6.44 2.93 1.42 7.09 1.6 10.26 1.18a9.78 9.78 0 0 0 6.71-3.74 13.66 13.66 0 0 0 4.43.24 1.92 1.92 0 0 0 1.68-2 4.66 4.66 0 0 0 -2.28-4.13 12.83 12.83 0 0 0 1.7-.35c.88-.26 2.09-.67 2.23-1.78zm-3-8.58c.24 1 .27 2-.7 2.68a6.14 6.14 0 0 1 -2.07.76 11.21 11.21 0 0 0 -1.5-4.62.52.52 0 0 0 .16 0 7.24 7.24 0 0 1 2-.5c1.28-.15 1.9.57 2.16 1.69zm-4.26-6a2.75 2.75 0 0 1 -.69 3.78.44.44 0 0 0 -.06.07c-.06-.07-.11-.15-.18-.23a9.59 9.59 0 0 0 -2.71-2 .47.47 0 0 0 0-.19 4.84 4.84 0 0 1 0-.56c.46-1.27 2.86-1.94 3.69-.87zm-9.22-2.14c.68-1.41 2.14-1.19 3.35-.63 1.64.75 1.25 2.19 1.27 3.63a1.41 1.41 0 0 0 -.05.31 17.38 17.38 0 0 0 -4.76-1.13h-.43a10.84 10.84 0 0 1 .62-2.18zm-4.83-.49a3.89 3.89 0 0 1 3 2.55.5.5 0 0 0 .05.09 10.32 10.32 0 0 0 -4.19 1 .46.46 0 0 0 0-.08c-.46-1.27-1.13-3.85 1.14-3.56zm-7.13 3.71c.79-1.9 3.47.18 4.62.79a7.81 7.81 0 0 0 -1 .9 7.51 7.51 0 0 0 -1.45 2.4c-1.17-.69-2.77-2.64-2.17-4.09zm15.37 24a19.1 19.1 0 0 1 -8.69-.06 8.21 8.21 0 0 1 -3.19-1.06c-1.5-1.11-1.37-3.58-1.52-5.22a.5.5 0 0 0 -.22-.38 1.82 1.82 0 0 1 .53-.65.49.49 0 0 0 .24-.2c.46-.31 1-.55 1.38-.77.78-.45 1.57-.88 2.35-1.32s2-1.09 2.1-2-.75-.76-1.29-.82a26.13 26.13 0 0 1 -5.14-1.09c.31-2.71.39-5.92 2.33-8.05a8.8 8.8 0 0 1 7.45-2.44c2.66.26 6 1.27 7.83 3.3s2.25 4.92 2.26 7.58c.08 5.27-.36 11.48-6.41 13.18zm10.37-4.42c0 1.35-1 1.22-2.05 1.22a15.35 15.35 0 0 1 -2.44-.18 11.55 11.55 0 0 0 1.43-4.68 3.76 3.76 0 0 1 3.07 3.64zm-2.94-5c.07-1.27.05-2.53.05-3.72 0-.33 0-.67 0-1a.49.49 0 0 0 .14 0 3.31 3.31 0 0 1 2.6.74 7.87 7.87 0 0 1 1.52 1.92c.57 1.24-.48 1.57-1.43 1.83a5.48 5.48 0 0 1 -2.87.2z"/><path d="m20.83 10.85c-1.75-2.07-3.61-1.39-5 .74-.36.54.51 1 .86.5a2.18 2.18 0 0 1 3.86 0 8.68 8.68 0 0 1 1.14 2.91 13.34 13.34 0 0 1 -.28 5.9c-.4 1.69-.92 4.83-3.26 3.58-1.78-.95-2.82-2.77-3.72-4.49-.3-.57-1.16-.07-.86.5 1.13 2.16 3.31 5.69 6.27 5.54 2.29-.12 2.75-5.43 3-7.09a10.43 10.43 0 0 0 -2.01-8.09z"/><path d="m17.14 14.87a16.34 16.34 0 0 0 3.34.09c.64 0 .64-1 0-1a16.34 16.34 0 0 1 -3.34-.09c-.64-.08-.63.92 0 1z"/><path d="m16.64 16.76 3.27.89a.5.5 0 0 0 .27-1l-3.27-.89a.5.5 0 0 0 -.27 1z"/><path d="m16.35 18.7a10.18 10.18 0 0 0 2.87 1.64c.6.23.86-.74.27-1a8.69 8.69 0 0 1 -2.43-1.34c-.5-.41-1.21.29-.71.7z"/><path d="m16.28 20.87a10.94 10.94 0 0 1 1.78 1.81c.39.5 1.26 0 .86-.5a12 12 0 0 0 -1.93-2c-.5-.42-1.21.28-.71.69z"/><g font-family="'Helvetica Neue', Helvetica, Arial-Unicode, Arial, Sans-serif" font-size="5" font-weight="bold"><text y="47">Created by iconix user</text><text y="52">from the Noun Project</text></g></svg>