<?xml version="1.0" standalone="no"?>
<!DOCTYPE svg PUBLIC "-//W3C//DTD SVG 20010904//EN"
 "http://www.w3.org/TR/2001/REC-SVG-20010904/DTD/svg10.dtd">
<svg version="1.0" xmlns="http://www.w3.org/2000/svg"
 width="512.000000pt" height="512.000000pt" viewBox="0 0 512.000000 512.000000"
 preserveAspectRatio="xMidYMid meet">
<metadata>
Created by potrace 1.14, written by Peter Selinger 2001-2017
</metadata>
<g transform="translate(0.000000,512.000000) scale(0.100000,-0.100000)"
fill="#000000" stroke="none">
<path d="M1065 5105 c-155 -27 -360 -107 -487 -192 -301 -201 -506 -516 -563
-863 -22 -139 -23 -2817 0 -2955 64 -395 287 -727 620 -923 140 -82 310 -141
470 -162 67 -8 458 -10 1505 -8 1321 4 1420 5 1490 22 514 123 873 482 996
996 17 70 18 169 22 1490 2 1047 0 1438 -8 1505 -73 553 -512 998 -1075 1090
-128 21 -2846 20 -2970 0z m1517 -676 c114 -24 198 -90 241 -189 38 -87 99
-292 90 -300 -4 -4 -69 -26 -143 -49 -219 -69 -513 -162 -540 -171 -14 -5 -92
-30 -175 -55 -431 -134 -454 -144 -519 -216 -61 -67 -90 -141 -90 -229 -1 -68
8 -101 88 -345 48 -148 113 -349 143 -445 30 -96 67 -215 83 -265 15 -49 44
-142 65 -205 20 -63 47 -149 60 -190 68 -220 148 -468 157 -493 6 -15 9 -29 7
-31 -9 -8 -302 -97 -351 -106 -58 -11 -140 0 -192 27 -43 22 -116 93 -136 133
-9 19 -52 143 -95 275 -42 132 -99 310 -127 395 -70 218 -100 313 -153 485
-25 83 -50 161 -55 175 -5 14 -36 113 -70 220 -34 107 -65 206 -70 220 -5 14
-36 113 -70 220 -34 107 -66 209 -73 225 -6 17 -11 64 -11 105 1 60 6 85 27
126 64 125 98 146 397 238 30 10 109 34 175 56 66 21 208 66 315 100 107 34
227 72 265 85 39 13 138 44 220 70 83 26 197 63 255 82 58 19 132 41 165 48
33 7 61 14 62 14 1 1 26 -4 55 -10z m994 -505 c65 -21 121 -60 161 -112 32
-42 48 -88 214 -617 33 -104 64 -201 69 -215 5 -14 41 -126 80 -250 39 -124
75 -236 80 -250 5 -14 36 -113 70 -220 34 -107 65 -206 70 -220 5 -14 36 -113
70 -220 34 -107 66 -208 73 -225 7 -16 12 -64 11 -105 -1 -88 -24 -147 -80
-210 -57 -63 -72 -69 -409 -174 -82 -26 -161 -51 -175 -56 -14 -5 -113 -37
-220 -70 -296 -94 -442 -140 -470 -150 -110 -38 -418 -132 -458 -140 -55 -10
-153 8 -200 37 -45 28 -103 86 -122 123 -9 19 -45 123 -79 230 -34 107 -66
206 -71 220 -5 14 -36 113 -70 220 -34 107 -65 206 -70 220 -5 14 -41 126 -80
250 -40 124 -114 356 -165 515 -185 576 -179 554 -179 630 1 83 25 144 80 205
54 60 99 82 294 143 96 30 254 81 350 112 96 31 231 75 300 97 847 271 825
265 926 232z"/>
<path d="M2838 3083 c-14 -9 -32 -28 -39 -42 -7 -15 -17 -124 -25 -255 -7
-125 -15 -230 -16 -232 -2 -2 -109 -35 -238 -73 -154 -46 -240 -77 -254 -91
-28 -27 -29 -109 -3 -138 10 -11 62 -36 115 -56 53 -20 151 -58 217 -85 l120
-48 0 -257 0 -258 33 -29 c39 -35 87 -38 125 -9 14 11 87 97 163 190 76 94
142 170 146 170 4 0 58 -18 120 -39 376 -130 348 -123 385 -110 36 11 73 59
73 92 0 26 -21 63 -147 259 l-115 178 151 197 c124 161 151 202 151 229 0 48
-18 80 -56 100 -34 18 -36 18 -122 -5 -257 -69 -377 -99 -384 -95 -4 3 -64 87
-134 189 -69 101 -136 193 -149 205 -31 29 -83 35 -117 13z m227 -525 c54 -79
87 -108 126 -108 16 0 72 12 125 26 53 14 98 23 101 21 2 -3 -30 -51 -71 -107
-56 -75 -76 -109 -76 -132 0 -29 59 -138 112 -207 10 -13 17 -26 15 -28 -2 -1
-57 15 -123 38 -159 55 -164 53 -266 -69 l-78 -93 0 134 c0 169 0 170 -148
227 -59 23 -109 44 -111 45 -1 2 37 16 85 30 198 59 200 61 210 211 3 54 8
106 10 114 6 17 17 4 89 -102z"/>
</g>
</svg>
